HIERARCHY
ROOT Hips
{
	OFFSET -0.001795 -0.223333 0.028219
	CHANNELS 6 Xposition Yposition Zposition Zrotation Yrotation Xrotation 
	JOINT LeftUpLeg
	{
		OFFSET 0.069520 -0.091406 -0.006815
		CHANNELS 3 Zrotation Yrotation Xrotation
		JOINT LeftLeg
		{
			OFFSET 0.034277 -0.375199 -0.004496
			CHANNELS 3 Zrotation Yrotation Xrotation
			JOINT LeftFoot
			{
				OFFSET -0.013596 -0.397961 -0.043693
				CHANNELS 3 Zrotation Yrotation Xrotation
				JOINT LeftToe
				{
					OFFSET 0.026358 -0.055791 0.119288
					CHANNELS 3 Zrotation Yrotation Xrotation
					End Site
					{
						OFFSET 0.000000 0.000000 0.000000
					}
				}
			}
		}
	}
	JOINT RightUpLeg
	{
		OFFSET -0.067670 -0.090522 -0.004320
		CHANNELS 3 Zrotation Yrotation Xrotation
		JOINT RightLeg
		{
			OFFSET -0.038290 -0.382569 -0.008850
			CHANNELS 3 Zrotation Yrotation Xrotation
			JOINT RightFoot
			{
				OFFSET 0.015774 -0.398415 -0.042312
				CHANNELS 3 Zrotation Yrotation Xrotation
				JOINT RightToe
				{
					OFFSET -0.025372 -0.048144 0.123348
					CHANNELS 3 Zrotation Yrotation Xrotation
					End Site
					{
						OFFSET 0.000000 0.000000 0.000000
					}
				}
			}
		}
	}
	JOINT Spine
	{
		OFFSET -0.002533 0.108963 -0.026696
		CHANNELS 3 Zrotation Yrotation Xrotation
		JOINT Spine1
		{
			OFFSET 0.005487 0.135180 0.001092
			CHANNELS 3 Zrotation Yrotation Xrotation
			JOINT Spine2
			{
				OFFSET 0.001457 0.052922 0.025425
				CHANNELS 3 Zrotation Yrotation Xrotation
				JOINT Neck
				{
					OFFSET -0.002778 0.213870 -0.042857
					CHANNELS 3 Zrotation Yrotation Xrotation
					JOINT Head
					{
						OFFSET 0.005152 0.064970 0.051349
						CHANNELS 3 Zrotation Yrotation Xrotation
						End Site
						{
							OFFSET 0.000000 0.000000 0.000000
						}
					}
				}
				JOINT LeftShoulder
				{
					OFFSET 0.078845 0.121749 -0.034090
					CHANNELS 3 Zrotation Yrotation Xrotation
					JOINT LeftArm
					{
						OFFSET 0.090977 0.030469 -0.008868
						CHANNELS 3 Zrotation Yrotation Xrotation
						JOINT LeftForeArm
						{
							OFFSET 0.259612 -0.012772 -0.027456
							CHANNELS 3 Zrotation Yrotation Xrotation
							JOINT LeftHand
							{
								OFFSET 0.249234 0.008986 -0.001171
								CHANNELS 3 Zrotation Yrotation Xrotation
								End Site
								{
									OFFSET 0.000000 0.000000 0.000000
								}
							}
						}
					}
				}
				JOINT RightShoulder
				{
					OFFSET -0.081759 0.118833 -0.038615
					CHANNELS 3 Zrotation Yrotation Xrotation
					JOINT RightArm
					{
						OFFSET -0.096012 0.032551 -0.009143
						CHANNELS 3 Zrotation Yrotation Xrotation
						JOINT RightForeArm
						{
							OFFSET -0.253742 -0.013329 -0.021401
							CHANNELS 3 Zrotation Yrotation Xrotation
							JOINT RightHand
							{
								OFFSET -0.255298 0.007772 -0.005559
								CHANNELS 3 Zrotation Yrotation Xrotation
								End Site
								{
									OFFSET 0.000000 0.000000 0.000000
								}
							}
						}
					}
				}
			}
		}
	}
}
MOTION
Frames: 16
Frame Time: 0.050000
0.000000 0.694275 0.000000 -7.332526 -3.752572 -3.829332 22.141343 4.981526 -40.618562 -11.889508 9.835000 80.161003 9.947575 19.668381 -26.802560 0.000000 0.000000 0.000000 0.279742 5.548054 -45.698465 9.438419 -4.466005 85.340435 -7.191034 -15.967279 -17.914976 0.000000 0.000000 0.000000 -0.947650 -0.702253 25.984372 -3.544390 1.616877 -5.988536 -5.142133 2.884206 5.605530 11.517378 -6.671689 -12.012778 0.000000 0.000000 0.000000 -17.497332 -18.138995 7.162878 -43.167746 -14.333800 -0.133666 2.327403 -21.819489 0.299666 0.000000 0.000000 0.000000 16.509635 7.085087 2.681740 37.587774 23.864633 3.017398 -132.731617 62.640273 -100.741969 0.000000 0.000000 0.000000 
-0.006283 0.700655 0.009543 -6.902868 -3.945196 -3.184036 22.601324 4.933936 -38.764948 -12.402469 10.334481 78.731601 9.667912 18.619848 -25.787910 0.000000 0.000000 0.000000 1.529383 6.140013 -45.988999 8.360514 -3.188407 86.853804 -6.555814 -13.003448 -19.083072 0.000000 0.000000 0.000000 0.644078 -1.004553 24.719064 -3.404666 1.522666 -7.821247 -6.464679 5.139503 4.122998 12.635706 -7.038555 -12.575896 0.000000 0.000000 0.000000 -21.276688 -19.349689 7.248804 -41.962725 -9.996086 -1.162334 0.222702 -19.211806 0.554272 0.000000 0.000000 0.000000 18.815085 5.145702 2.258312 41.736194 19.077621 1.810681 -135.416599 74.665162 -115.273752 0.000000 0.000000 0.000000 
-0.009074 0.721872 0.019208 -5.271160 -1.313382 -3.577095 19.855707 3.138666 -36.193598 -12.830534 9.087294 75.272596 9.166714 16.602401 -26.446185 0.000000 0.000000 0.000000 1.302384 4.761379 -40.016687 5.217678 -0.855265 83.063578 -6.768725 -12.617714 -22.845256 0.000000 0.000000 0.000000 0.466881 -0.939759 21.087192 -0.916026 0.535478 -6.099050 -8.386851 4.416925 4.742620 12.371645 -6.440407 -14.082706 0.000000 0.000000 0.000000 -22.469364 -18.027454 6.226218 -43.855659 -11.191914 -0.700853 3.118513 -14.190508 0.051837 0.000000 0.000000 0.000000 20.770563 4.219356 2.052333 42.900547 17.455852 1.167805 -128.163676 80.944564 -112.697625 0.000000 0.000000 0.000000 
-0.009004 0.753050 0.027906 -4.591584 -1.707938 -3.432498 17.728531 2.168107 -31.505237 -12.869878 8.397433 68.352301 8.795576 15.336695 -25.189040 0.000000 0.000000 0.000000 1.016946 4.200784 -36.032205 3.333363 1.302419 76.713098 -6.245269 -10.442646 -21.422707 0.000000 0.000000 0.000000 1.089361 -0.911004 18.582189 -0.954572 0.542737 -6.046990 -8.440808 4.384275 5.007821 11.957812 -5.825373 -15.606854 0.000000 0.000000 0.000000 -20.909187 -15.647039 4.960333 -46.371489 -11.721970 -0.660617 1.191807 -12.260877 0.257919 0.000000 0.000000 0.000000 16.690180 1.597066 0.500592 49.601550 16.156974 1.357711 -68.788216 84.448942 -56.534241 0.000000 0.000000 0.000000 
-0.007304 0.794150 0.034741 -3.427830 -1.100613 -3.087106 15.644792 1.212308 -26.050897 -13.415667 7.295533 57.889230 7.997912 12.989209 -22.249589 0.000000 0.000000 0.000000 -0.210148 3.085501 -30.009826 1.796529 2.050550 65.952769 -5.375349 -6.666385 -20.440068 0.000000 0.000000 0.000000 1.408206 -0.779409 14.845628 -0.995938 0.559902 -5.453790 -7.439316 3.865878 5.858815 11.520485 -5.520677 -16.033608 0.000000 0.000000 0.000000 -21.520601 -14.999976 4.816683 -47.439753 -11.094977 -1.044508 -0.076341 -10.729217 0.357303 0.000000 0.000000 0.000000 15.120675 1.276072 0.259893 53.337987 13.656653 0.545542 -21.155791 77.329635 -11.103305 0.000000 0.000000 0.000000 
-0.005678 0.839031 0.039993 -2.994252 0.496630 -1.624872 13.655358 0.410574 -20.110832 -12.406616 4.897820 45.153784 7.237596 10.560427 -20.538603 0.000000 0.000000 0.000000 -1.396266 2.206629 -24.828831 1.370828 1.305134 53.050100 -4.586982 -4.582517 -18.547224 0.000000 0.000000 0.000000 2.000978 -0.650874 10.839713 -0.849238 0.518223 -5.415021 -6.676617 3.806922 6.700207 10.989085 -4.726947 -17.934091 0.000000 0.000000 0.000000 -18.881091 -12.962289 3.635684 -51.541912 -10.785472 -1.407250 -1.235717 -10.886990 0.464625 0.000000 0.000000 0.000000 14.363257 -0.826154 -0.662178 56.389177 12.143126 0.008498 -8.119571 66.516272 -0.390155 0.000000 0.000000 0.000000 
-0.004436 0.880091 0.043473 -2.749732 0.228125 0.026553 11.304114 -0.037153 -14.736265 -9.912215 2.823545 31.715592 5.974507 8.733904 -14.501290 0.000000 0.000000 0.000000 -1.669834 1.712170 -19.528541 1.210274 1.046518 39.950561 -3.641823 -3.886839 -13.307739 0.000000 0.000000 0.000000 2.677970 -0.467261 6.841483 -0.716752 0.436781 -4.523509 -6.403258 4.034499 6.598594 11.318052 -5.064107 -17.216990 0.000000 0.000000 0.000000 -17.920890 -10.466806 2.386119 -53.394601 -9.512023 -2.075168 -1.664156 -10.990495 0.506177 0.000000 0.000000 0.000000 15.444760 -1.341015 -0.956805 57.612157 10.426363 -0.779644 -3.289405 57.501218 2.130462 0.000000 0.000000 0.000000 
-0.003586 0.909728 0.045818 -2.478293 1.115784 2.011919 8.922465 -0.341596 -11.887897 -6.471385 1.145988 21.898632 4.925681 7.552195 -9.359304 0.000000 0.000000 0.000000 -2.258760 1.258412 -15.047853 1.454533 0.505170 28.004904 -2.471647 -2.755827 -8.371075 0.000000 0.000000 0.000000 3.195290 -0.273991 3.214517 -0.587339 0.389852 -4.553269 -5.813422 4.427355 6.660790 10.845687 -4.813356 -16.620827 0.000000 0.000000 0.000000 -17.855705 -9.100252 1.514848 -53.679839 -9.435120 -2.097252 -3.116498 -11.384184 0.654653 0.000000 0.000000 0.000000 16.168218 -1.881238 -1.128433 58.530921 9.464238 -1.202200 -1.401354 49.175749 2.584603 0.000000 0.000000 0.000000 
-0.002607 0.924782 0.048000 -2.374879 1.573111 3.215192 7.663104 -0.411498 -9.311152 -4.401504 0.493314 14.848110 3.893006 6.365617 -5.486293 0.000000 0.000000 0.000000 -2.304214 1.028743 -12.136106 1.150638 0.393456 20.087492 -1.842550 -2.820943 -4.506789 0.000000 0.000000 0.000000 3.644930 -0.108719 0.469936 -0.732401 0.447903 -4.228604 -5.470908 4.384013 6.829640 10.659422 -4.895386 -15.634663 0.000000 0.000000 0.000000 -17.499615 -8.178389 1.052591 -53.908696 -9.541366 -2.078670 -3.218832 -11.402791 0.662919 0.000000 0.000000 0.000000 16.148189 -1.937716 -1.128342 59.488564 8.383898 -1.714452 0.965872 42.141427 2.923911 0.000000 0.000000 0.000000 
-0.001337 0.932822 0.050261 -1.961535 2.274626 3.837038 6.812427 -0.407111 -7.054377 -3.126561 0.234338 9.412567 3.010435 5.527867 -2.237259 0.000000 0.000000 0.000000 -2.305134 0.815823 -9.414633 0.387466 0.408257 14.010202 -1.445161 -3.248260 -1.123666 0.000000 0.000000 0.000000 3.637763 0.001822 -1.175264 -0.568676 0.382419 -4.152912 -5.346738 4.618919 6.379157 10.549950 -4.853702 -15.174194 0.000000 0.000000 0.000000 -17.516698 -7.908750 0.750955 -53.577987 -9.459111 -2.028489 -3.871972 -11.629708 0.729398 0.000000 0.000000 0.000000 17.554438 -2.259294 -1.225801 59.707929 7.444255 -2.204660 2.405104 35.342157 2.758742 0.000000 0.000000 0.000000 
0.000202 0.937037 0.052602 -1.932690 1.760199 4.011092 6.146716 -0.353512 -5.184664 -2.407092 0.169536 5.655163 2.680237 5.499174 -0.436400 0.000000 0.000000 0.000000 -2.321649 0.679243 -7.612995 -0.316259 0.434967 10.003142 -0.845406 -2.714532 1.283801 0.000000 0.000000 0.000000 4.106298 0.088343 -2.413338 -0.978366 0.547432 -3.926702 -4.982256 5.212544 6.293353 10.336050 -4.659443 -15.296017 0.000000 0.000000 0.000000 -17.085417 -7.513936 0.535716 -53.697149 -9.629694 -1.958277 -3.843293 -12.089411 0.747645 0.000000 0.000000 0.000000 17.532702 -2.443026 -1.274100 60.796405 6.915991 -2.444884 2.613302 29.774570 2.257029 0.000000 0.000000 0.000000 
0.001566 0.939492 0.054906 -1.723780 1.418963 4.209138 5.479836 -0.303725 -3.780477 -1.789711 0.138243 2.589591 2.344966 5.569438 1.704561 0.000000 0.000000 0.000000 -2.471447 0.576798 -6.328945 -1.231401 0.472870 6.947403 -0.382156 -2.285284 2.924680 0.000000 0.000000 0.000000 4.411445 0.145482 -3.177471 -1.171462 0.631036 -4.143015 -4.956263 5.376424 6.083443 10.196852 -4.572648 -15.270473 0.000000 0.000000 0.000000 -16.801151 -6.937273 0.289016 -53.475923 -9.323182 -2.089995 -4.068683 -12.763404 0.810275 0.000000 0.000000 0.000000 17.927345 -3.052126 -1.635749 61.390525 6.479051 -2.658294 3.279875 25.415921 1.965291 0.000000 0.000000 0.000000 
0.002751 0.942125 0.057022 -1.649084 0.740350 4.409745 4.981966 -0.250101 -2.660495 -1.137355 0.106270 0.598566 2.266658 5.787092 2.848144 0.000000 0.000000 0.000000 -2.337641 0.531770 -5.672726 -1.658903 0.439277 4.912925 -0.270641 -2.664681 4.381423 0.000000 0.000000 0.000000 4.594214 0.199589 -3.844940 -1.238263 0.649462 -3.995806 -4.553773 5.440725 5.720837 9.991964 -4.601000 -14.630853 0.000000 0.000000 0.000000 -16.611603 -6.252817 0.053640 -53.791432 -9.248436 -2.134618 -4.963880 -13.485678 0.959420 0.000000 0.000000 0.000000 17.660365 -3.154116 -1.774605 61.906163 6.035475 -2.843490 3.603149 23.535384 1.821455 0.000000 0.000000 0.000000 
0.003790 0.944135 0.059046 -1.654087 -0.026794 4.625974 4.607000 -0.204627 -1.854865 -0.798567 0.119065 -1.230098 2.307558 6.285838 4.256074 0.000000 0.000000 0.000000 -2.466603 0.482026 -5.014855 -1.954591 0.371214 2.943839 0.248349 -2.106293 5.718577 0.000000 0.000000 0.000000 4.843334 0.275471 -4.724825 -1.077972 0.572762 -4.048307 -4.398777 5.321299 5.508974 9.644086 -4.403833 -14.719008 0.000000 0.000000 0.000000 -16.330331 -5.600980 -0.102317 -54.160399 -8.900935 -2.333039 -5.589626 -14.041775 1.081705 0.000000 0.000000 0.000000 17.135371 -3.183995 -1.904102 62.363197 5.679348 -2.983632 4.119719 21.916901 1.724074 0.000000 0.000000 0.000000 
0.004685 0.944957 0.060848 -1.633505 -0.312862 4.765862 4.520672 -0.163514 -1.078838 -0.689891 0.148046 -2.639105 2.275681 6.419802 4.953606 0.000000 0.000000 0.000000 -2.557716 0.446917 -4.549684 -2.153522 0.323381 1.706523 0.611131 -1.713821 6.608617 0.000000 0.000000 0.000000 4.981337 0.294239 -4.927655 -1.064276 0.563012 -4.007115 -4.221255 5.134220 5.280591 9.547482 -4.444158 -14.355209 0.000000 0.000000 0.000000 -16.458670 -5.169195 -0.252236 -54.245518 -8.731534 -2.399366 -6.086992 -14.547090 1.186622 0.000000 0.000000 0.000000 16.808961 -3.447938 -2.113875 62.554354 5.218897 -3.196686 4.423718 21.398091 1.709453 0.000000 0.000000 0.000000 
0.005508 0.945240 0.062360 -1.631749 -0.837210 4.726251 4.409895 -0.122579 -0.426181 -0.623761 0.168521 -3.527027 2.381022 6.765670 5.563703 0.000000 0.000000 0.000000 -2.606557 0.411199 -4.072424 -2.311866 0.288430 0.848347 0.980323 -1.223021 7.195954 0.000000 0.000000 0.000000 5.105238 0.307769 -5.008180 -1.069737 0.559330 -3.989255 -3.954999 4.990598 5.262473 9.113726 -4.192441 -14.434935 0.000000 0.000000 0.000000 -16.820304 -5.016829 -0.260052 -54.543897 -8.684331 -2.441779 -6.225510 -14.809062 1.235628 0.000000 0.000000 0.000000 16.840765 -3.463002 -2.224918 62.602110 5.030469 -3.313811 4.284132 21.006044 1.630694 0.000000 0.000000 0.000000 
